<svg width="58" height="35" viewBox="0 0 58 35" fill="none" xmlns="http://www.w3.org/2000/svg">
<path d="M12.064 0.688C13.344 0.623999 14.4 0.591998 15.232 0.591998C18.112 0.591998 20.752 0.783998 23.152 1.168C24.368 1.296 25.536 1.488 26.656 1.744V8.608C25.312 8.48 24.304 8.368 23.632 8.272C23.088 8.24 22.208 8.16 20.992 8.032C19.776 7.968 18.976 7.936 18.592 7.936C16.64 7.936 15.2 7.984 14.272 8.08C13.376 8.144 12.64 8.336 12.064 8.656V0.688ZM15.232 34.384C12.032 34.384 9.472 34.144 7.552 33.664C5.664 33.184 4.192 32.336 3.136 31.12C2.08 29.904 1.328 28.224 0.88 26.08C0.464 23.936 0.256 21.072 0.256 17.488C0.256 14.448 0.4 11.952 0.688 10C0.976 8.048 1.472 6.448 2.176 5.2C2.912 3.92 3.904 2.944 5.152 2.272C6.4 1.6 8.032 1.136 10.048 0.879997V17.488C10.048 19.76 10.112 21.504 10.24 22.72C10.368 23.904 10.608 24.816 10.96 25.456C11.344 26.128 11.888 26.592 12.592 26.848C13.328 27.104 14.368 27.232 15.712 27.232V34.384H15.232ZM17.728 21.328H14.32V14.368H26.8V33.184C25.296 33.536 23.424 33.808 21.184 34C20.096 34.16 18.944 34.256 17.728 34.288V21.328Z" fill="#FF6B00"/>
<path d="M55.5595 8.56C54.5035 8.432 52.6475 8.256 49.9915 8.032C48.5195 7.968 47.3355 7.936 46.4395 7.936C45.2875 7.936 44.1995 7.968 43.1755 8.032V0.591998H44.3755C46.9995 0.591998 49.7195 0.767998 52.5355 1.12C53.4315 1.248 54.4395 1.424 55.5595 1.648V8.56ZM47.6395 24.256C47.6395 23.584 47.5915 23.104 47.4955 22.816C47.3995 22.496 47.2395 22.288 47.0155 22.192C46.7915 22.064 46.4075 21.968 45.8635 21.904L39.9595 21.184C36.4715 20.8 34.1195 19.664 32.9035 17.776C32.3595 16.976 31.9915 16 31.7995 14.848C31.6075 13.696 31.5115 12.288 31.5115 10.624C31.5115 7.072 32.4235 4.512 34.2475 2.944C35.7195 1.664 38.0235 0.911999 41.1595 0.688V10.336C41.1595 10.752 41.1755 11.104 41.2075 11.392C41.2395 11.68 41.3035 11.904 41.3995 12.064C41.4955 12.256 41.6555 12.4 41.8795 12.496C42.1035 12.56 42.4395 12.608 42.8875 12.64L49.5115 13.456C50.8875 13.648 52.0075 13.888 52.8715 14.176C53.7355 14.464 54.4715 14.912 55.0795 15.52C56.5195 17.024 57.2395 19.696 57.2395 23.536C57.2395 27.6 56.3435 30.448 54.5515 32.08C53.7515 32.816 52.7755 33.36 51.6235 33.712C50.5035 34.032 49.1755 34.24 47.6395 34.336V24.256ZM45.0955 34.384C41.8955 34.384 38.9195 34.24 36.1675 33.952C34.5355 33.792 33.3035 33.632 32.4715 33.472V26.464C34.3595 26.624 36.5195 26.784 38.9515 26.944C40.4875 27.008 41.5755 27.04 42.2155 27.04C43.9435 27.04 45.0795 26.992 45.6235 26.896V34.384H45.0955Z" fill="#FF3530"/>
</svg>
