<svg width="236" height="46" viewBox="0 0 236 46" fill="none" xmlns="http://www.w3.org/2000/svg">
<path d="M12.064 2.688C13.344 2.624 14.4 2.592 15.232 2.592C18.112 2.592 20.752 2.784 23.152 3.168C24.368 3.296 25.536 3.488 26.656 3.744V10.608C25.312 10.48 24.304 10.368 23.632 10.272C23.088 10.24 22.208 10.16 20.992 10.032C19.776 9.968 18.976 9.936 18.592 9.936C16.64 9.936 15.2 9.984 14.272 10.08C13.376 10.144 12.64 10.336 12.064 10.656V2.688ZM15.232 36.384C12.032 36.384 9.472 36.144 7.552 35.664C5.664 35.184 4.192 34.336 3.136 33.12C2.08 31.904 1.328 30.224 0.88 28.08C0.464 25.936 0.256 23.072 0.256 19.488C0.256 16.448 0.4 13.952 0.688 12C0.976 10.048 1.472 8.448 2.176 7.2C2.912 5.92 3.904 4.944 5.152 4.272C6.4 3.6 8.032 3.136 10.048 2.88V19.488C10.048 21.76 10.112 23.504 10.24 24.72C10.368 25.904 10.608 26.816 10.96 27.456C11.344 28.128 11.888 28.592 12.592 28.848C13.328 29.104 14.368 29.232 15.712 29.232V36.384H15.232ZM17.728 23.328H14.32V16.368H26.8V35.184C25.296 35.536 23.424 35.808 21.184 36C20.096 36.16 18.944 36.256 17.728 36.288V23.328Z" fill="#FF6B00"/>
<path d="M44.9515 20.832C44.9515 20 44.9195 19.408 44.8555 19.056C44.7915 18.704 44.5995 18.448 44.2795 18.288C43.9915 18.128 43.4475 18.016 42.6475 17.952C42.1675 17.92 41.1275 17.904 39.5275 17.904C37.9915 17.904 36.5675 17.968 35.2555 18.096L32.7115 18.24V12C35.7195 11.424 38.9675 11.136 42.4555 11.136C45.1435 11.136 47.2395 11.328 48.7435 11.712C50.2795 12.096 51.4315 12.704 52.1995 13.536C52.8715 14.304 53.3035 15.28 53.4955 16.464C53.7195 17.648 53.8315 19.296 53.8315 21.408V36H44.9515V20.832ZM37.8475 36.336C35.6395 36.336 34.0075 35.728 32.9515 34.512C31.8955 33.264 31.3675 31.392 31.3675 28.896C31.3675 27.36 31.4795 26.128 31.7035 25.2C31.9275 24.24 32.3115 23.488 32.8555 22.944C33.3995 22.368 34.1515 21.968 35.1115 21.744C36.0715 21.488 37.3355 21.36 38.9035 21.36L42.9355 21.456V25.728H42.4555C41.7195 25.728 41.2395 25.744 41.0155 25.776C40.3755 25.808 40.0395 26.112 40.0075 26.688C39.9755 26.88 39.9595 27.28 39.9595 27.888C39.9595 28.368 39.9755 28.736 40.0075 28.992C40.0715 29.248 40.1675 29.456 40.2955 29.616C40.4555 29.84 40.6955 29.968 41.0155 30C41.4635 30.064 41.9435 30.096 42.4555 30.096H42.9355V34.992C42.2315 35.536 41.4795 35.888 40.6795 36.048C39.9115 36.24 38.9675 36.336 37.8475 36.336ZM72.5811 21.072C72.5811 20.304 72.5011 19.712 72.3411 19.296C72.2131 18.976 72.0051 18.784 71.7171 18.72C71.4611 18.624 70.9971 18.576 70.3251 18.576H70.0851V12.576C71.3331 11.648 73.0611 11.184 75.2691 11.184C76.2611 11.184 77.1251 11.312 77.8611 11.568C78.5971 11.792 79.2211 12.208 79.7331 12.816C80.8851 14.224 81.4611 16.848 81.4611 20.688V36H72.5811V21.072ZM85.9731 21.072C85.9731 20.304 85.8931 19.712 85.7331 19.296C85.6051 18.976 85.3971 18.784 85.1091 18.72C84.8531 18.624 84.3891 18.576 83.7171 18.576H83.4771C83.4131 17.744 83.3171 16.88 83.1891 15.984C82.9331 14.704 82.6611 13.776 82.3731 13.2C83.7171 11.856 85.6371 11.184 88.1331 11.184C90.8531 11.184 92.7091 12.064 93.7011 13.824C94.1491 14.592 94.4531 15.536 94.6131 16.656C94.7731 17.744 94.8531 19.088 94.8531 20.688V36H85.9731V21.072ZM59.1891 11.52H68.0691V36H59.1891V11.52ZM110.473 21.36H113.833C113.833 19.568 113.657 18.416 113.305 17.904C113.113 17.616 112.857 17.44 112.537 17.376C112.217 17.28 111.753 17.232 111.145 17.232H110.473V11.136H111.145C113.897 11.136 116.009 11.36 117.481 11.808C118.985 12.256 120.089 12.992 120.793 14.016C121.433 14.912 121.817 16.064 121.945 17.472C122.105 18.88 122.185 20.992 122.185 23.808V25.728H110.473V21.36ZM112.105 36.384C109.161 36.384 106.841 36.144 105.145 35.664C103.481 35.152 102.233 34.352 101.401 33.264C100.665 32.304 100.185 31.12 99.9614 29.712C99.7374 28.272 99.6254 26.304 99.6254 23.808C99.6254 21.504 99.7054 19.68 99.8654 18.336C100.025 16.96 100.361 15.792 100.873 14.832C101.449 13.776 102.329 12.96 103.513 12.384C104.729 11.776 106.377 11.392 108.457 11.232V25.728C108.457 26.816 108.505 27.6 108.601 28.08C108.697 28.528 108.921 28.864 109.273 29.088C109.657 29.344 110.249 29.488 111.049 29.52C112.073 29.584 113.161 29.616 114.313 29.616C116.361 29.616 117.849 29.568 118.777 29.472L121.225 29.28V35.472C119.945 35.856 118.185 36.112 115.945 36.24C114.857 36.336 113.577 36.384 112.105 36.384ZM156.455 0.335999H165.335V36H156.455V0.335999ZM170.327 24.432C170.327 22.736 170.311 21.616 170.279 21.072C170.215 20.176 170.135 19.584 170.039 19.296C169.911 18.976 169.687 18.784 169.367 18.72C169.047 18.624 168.535 18.576 167.831 18.576H167.351V12.72C168.631 11.696 170.263 11.184 172.247 11.184C175.127 11.184 177.063 12.064 178.055 13.824C178.503 14.592 178.807 15.536 178.967 16.656C179.127 17.744 179.207 19.088 179.207 20.688V36H170.327V24.432ZM198.354 23.808C198.354 22.176 198.338 21.088 198.306 20.544C198.274 19.776 198.178 19.2 198.018 18.816C197.858 18.4 197.602 18.144 197.25 18.048C196.866 17.952 196.338 17.904 195.666 17.904H194.994V11.136H195.666C198.45 11.136 200.626 11.36 202.194 11.808C203.762 12.224 204.93 12.928 205.698 13.92C206.402 14.816 206.85 16.016 207.042 17.52C207.266 18.992 207.378 21.088 207.378 23.808C207.378 26.336 207.298 28.304 207.138 29.712C207.01 31.088 206.674 32.224 206.13 33.12C205.522 34.112 204.61 34.864 203.394 35.376C202.178 35.856 200.498 36.16 198.354 36.288V23.808ZM195.666 36.384C192.882 36.384 190.706 36.176 189.138 35.76C187.57 35.344 186.402 34.64 185.634 33.648C184.93 32.752 184.466 31.568 184.242 30.096C184.05 28.624 183.954 26.528 183.954 23.808C183.954 21.312 184.034 19.36 184.194 17.952C184.354 16.544 184.706 15.376 185.25 14.448C185.826 13.424 186.722 12.672 187.938 12.192C189.154 11.68 190.834 11.36 192.978 11.232V23.808C192.978 25.44 192.994 26.512 193.026 27.024C193.058 27.792 193.154 28.368 193.314 28.752C193.474 29.136 193.746 29.376 194.13 29.472C194.45 29.568 194.962 29.616 195.666 29.616H196.338V36.384H195.666ZM227.934 36.336C226.782 36.336 225.838 36.24 225.102 36.048C224.366 35.888 223.678 35.552 223.038 35.04V28.944H223.566C224.27 28.944 224.766 28.912 225.054 28.848C225.374 28.752 225.614 28.56 225.774 28.272C225.934 27.92 226.03 27.408 226.062 26.736C226.094 26.256 226.11 25.264 226.11 23.76C226.11 22.256 226.094 21.264 226.062 20.784C226.03 20.08 225.934 19.568 225.774 19.248C225.646 18.928 225.406 18.736 225.054 18.672C224.606 18.608 224.11 18.576 223.566 18.576H223.038V12.48C223.678 12 224.382 11.664 225.15 11.472C225.95 11.28 226.878 11.184 227.934 11.184C229.214 11.184 230.302 11.392 231.198 11.808C232.126 12.224 232.878 12.896 233.454 13.824C234.574 15.68 235.134 18.96 235.134 23.664C235.134 28.336 234.574 31.632 233.454 33.552C232.334 35.408 230.494 36.336 227.934 36.336ZM212.142 11.52H221.022V45.552H212.142V11.52Z" fill="black"/>
<path d="M150.2 10.56C149.144 10.432 147.288 10.256 144.632 10.032C143.16 9.968 141.976 9.936 141.08 9.936C139.928 9.936 138.84 9.968 137.816 10.032V2.592H139.016C141.64 2.592 144.36 2.768 147.176 3.12C148.072 3.248 149.08 3.424 150.2 3.648V10.56ZM142.28 26.256C142.28 25.584 142.232 25.104 142.136 24.816C142.04 24.496 141.88 24.288 141.656 24.192C141.432 24.064 141.048 23.968 140.504 23.904L134.6 23.184C131.112 22.8 128.76 21.664 127.544 19.776C127 18.976 126.632 18 126.44 16.848C126.248 15.696 126.152 14.288 126.152 12.624C126.152 9.072 127.064 6.512 128.888 4.944C130.36 3.664 132.664 2.912 135.8 2.688V12.336C135.8 12.752 135.816 13.104 135.848 13.392C135.88 13.68 135.944 13.904 136.04 14.064C136.136 14.256 136.296 14.4 136.52 14.496C136.744 14.56 137.08 14.608 137.528 14.64L144.152 15.456C145.528 15.648 146.648 15.888 147.512 16.176C148.376 16.464 149.112 16.912 149.72 17.52C151.16 19.024 151.88 21.696 151.88 25.536C151.88 29.6 150.984 32.448 149.192 34.08C148.392 34.816 147.416 35.36 146.264 35.712C145.144 36.032 143.816 36.24 142.28 36.336V26.256ZM139.736 36.384C136.536 36.384 133.56 36.24 130.808 35.952C129.176 35.792 127.944 35.632 127.112 35.472V28.464C129 28.624 131.16 28.784 133.592 28.944C135.128 29.008 136.216 29.04 136.856 29.04C138.584 29.04 139.72 28.992 140.264 28.896V36.384H139.736Z" fill="#FF3530"/>
</svg>
